#define screen_base_width 160
#define screen_base_height 80
static unsigned char screen_base_bits[] = {
   0x00, 0x00, 0x00, 0x40, 0x00, 0x00, 0x00, 0x00, 0x10, 0x00, 0x00, 0x00,
   0x00, 0x00, 0x00, 0x00, 0x00, 0x00, 0x00, 0x00, 0x00, 0x00, 0x00, 0x30,
   0x00, 0x00, 0x00, 0x00, 0x20, 0x00, 0x00, 0x00, 0x00, 0x00, 0x00, 0x00,
   0x00, 0x00, 0x00, 0x00, 0x00, 0x00, 0x00, 0x08, 0x00, 0x00, 0x00, 0x00,
   0x40, 0x00, 0x00, 0x00, 0x00, 0x00, 0x00, 0x00, 0x00, 0x00, 0x00, 0x00,
   0x00, 0x00, 0x00, 0x04, 0x00, 0x00, 0x00, 0x00, 0x80, 0x00, 0x00, 0x00,
   0x00, 0x00, 0x00, 0x00, 0x00, 0x00, 0x00, 0x00, 0x00, 0x00, 0x00, 0x02,
   0x00, 0x00, 0x00, 0x00, 0x00, 0x01, 0x00, 0x00, 0x00, 0x00, 0x00, 0x00,
   0x00, 0x00, 0x00, 0x00, 0x00, 0x00, 0x00, 0x01, 0x00, 0x00, 0x00, 0x00,
   0x00, 0x01, 0x00, 0x00, 0x00, 0x00, 0x00, 0x00, 0x00, 0x00, 0x00, 0x00,
   0x00, 0x00, 0xc0, 0x00, 0x00, 0x00, 0x00, 0x00, 0x00, 0x02, 0x00, 0x00,
   0x00, 0x00, 0x00, 0x00, 0x00, 0x00, 0x00, 0x00, 0x00, 0x00, 0x20, 0x00,
   0x00, 0x00, 0x00, 0x00, 0x00, 0x04, 0x00, 0x00, 0x00, 0x00, 0x00, 0x00,
   0x00, 0x00, 0x00, 0x00, 0x00, 0x00, 0x10, 0x00, 0x00, 0x00, 0x00, 0x00,
   0x00, 0x04, 0x00, 0x00, 0x00, 0x00, 0x00, 0x00, 0x00, 0x00, 0x00, 0x00,
   0x00, 0x00, 0x08, 0x00, 0x00, 0x00, 0x00, 0x00, 0x00, 0x08, 0x00, 0x00,
   0x00, 0x00, 0x00, 0x00, 0x00, 0x00, 0x00, 0x00, 0x00, 0x00, 0x08, 0x00,
   0x00, 0x00, 0x00, 0x00, 0x00, 0x10, 0x00, 0x00, 0x00, 0x00, 0x00, 0x00,
   0x00, 0x00, 0x00, 0x00, 0x00, 0x00, 0x04, 0x00, 0x00, 0x00, 0x00, 0x00,
   0x00, 0x10, 0x00, 0x00, 0x00, 0x00, 0x00, 0x00, 0x00, 0x00, 0x00, 0x00,
   0x00, 0x00, 0x02, 0x00, 0x00, 0x00, 0x00, 0x00, 0x00, 0x20, 0x00, 0x00,
   0x00, 0x00, 0x00, 0x00, 0x00, 0x00, 0x00, 0x00, 0x00, 0x00, 0x01, 0x00,
   0x00, 0x00, 0x00, 0x00, 0x00, 0x40, 0x00, 0x00, 0x00, 0x00, 0x00, 0x00,
   0x00, 0x00, 0x00, 0x00, 0x00, 0x00, 0x01, 0x00, 0x00, 0x00, 0x00, 0x00,
   0x00, 0x40, 0x00, 0x00, 0x00, 0x00, 0x00, 0x00, 0x00, 0x00, 0x00, 0x00,
   0x00, 0x80, 0x00, 0x00, 0x00, 0x00, 0x00, 0x00, 0x00, 0x80, 0x00, 0x00,
   0x00, 0x00, 0x00, 0x00, 0x00, 0x00, 0x00, 0x80, 0x00, 0x40, 0x00, 0x00,
   0x00, 0x00, 0x00, 0x00, 0x00, 0x80, 0x00, 0x00, 0x00, 0x00, 0x00, 0x00,
   0x00, 0x00, 0x00, 0x40, 0x00, 0x40, 0x00, 0x00, 0x00, 0x00, 0x00, 0x00,
   0x00, 0x00, 0x01, 0x00, 0x00, 0x00, 0x00, 0x00, 0x00, 0x00, 0x00, 0x40,
   0x00, 0x20, 0x00, 0x00, 0x00, 0x00, 0x00, 0x00, 0x00, 0x00, 0x02, 0x00,
   0x00, 0x00, 0x00, 0x00, 0x00, 0x00, 0x00, 0x20, 0x00, 0x20, 0x00, 0x00,
   0x00, 0x00, 0x00, 0x00, 0x00, 0x00, 0x02, 0x00, 0x00, 0x00, 0x00, 0x00,
   0x00, 0x00, 0x00, 0x10, 0x00, 0x20, 0x00, 0x00, 0x00, 0x00, 0x00, 0x00,
   0x00, 0x00, 0x04, 0x00, 0x00, 0x00, 0x00, 0x00, 0x00, 0x00, 0x00, 0x08,
   0x00, 0x10, 0x00, 0x00, 0x00, 0x00, 0x00, 0x00, 0x00, 0x00, 0xfe, 0x0f,
   0x00, 0x00, 0x00, 0x00, 0x00, 0x00, 0x00, 0x04, 0x00, 0x10, 0x00, 0x00,
   0x00, 0x00, 0x00, 0x00, 0xc0, 0xff, 0x09, 0xf0, 0x01, 0x00, 0x00, 0x00,
   0x00, 0x00, 0x00, 0x02, 0x00, 0x10, 0x00, 0x00, 0x00, 0x00, 0x00, 0xc0,
   0x3f, 0x00, 0x10, 0x00, 0x0e, 0x00, 0x00, 0x00, 0x00, 0x00, 0x00, 0x01,
   0x00, 0x08, 0x00, 0xfc, 0x07, 0x00, 0x00, 0x3c, 0x00, 0x00, 0x10, 0x00,
   0x70, 0x00, 0x00, 0x00, 0x00, 0x00, 0x80, 0x00, 0x00, 0x08, 0x00, 0x18,
   0xf8, 0x00, 0xc0, 0x03, 0x00, 0x00, 0x20, 0x00, 0x80, 0x01, 0x00, 0x00,
   0x00, 0x00, 0x40, 0x00, 0x00, 0x04, 0x00, 0x10, 0x00, 0x0f, 0x38, 0x20,
   0x00, 0x00, 0x20, 0x00, 0x00, 0x06, 0x00, 0x00, 0x00, 0x00, 0x20, 0x00,
   0x00, 0x04, 0x00, 0x20, 0x00, 0xf0, 0x07, 0x30, 0x00, 0x00, 0x40, 0x00,
   0x00, 0x18, 0x00, 0x00, 0x00, 0x00, 0x18, 0x00, 0x00, 0x04, 0x00, 0x40,
   0x00, 0x00, 0x1f, 0x28, 0x00, 0x00, 0x40, 0x00, 0x80, 0xff, 0xff, 0x07,
   0x00, 0x00, 0x04, 0x00, 0x00, 0x04, 0x00, 0x80, 0x00, 0x80, 0xe0, 0x4f,
   0x00, 0x00, 0xc0, 0x00, 0x7e, 0xc0, 0x00, 0x0c, 0x00, 0x00, 0x02, 0x00,
   0x00, 0x02, 0x00, 0x00, 0x01, 0x40, 0x00, 0x5c, 0x00, 0x00, 0xc0, 0xf3,
   0x01, 0x00, 0x01, 0x10, 0x00, 0x00, 0x01, 0x00, 0x00, 0x02, 0x00, 0x00,
   0x02, 0x20, 0x00, 0xe4, 0x01, 0x00, 0x20, 0x1f, 0x00, 0x00, 0x02, 0x10,
   0x00, 0xc0, 0x00, 0x00, 0x00, 0x02, 0x00, 0x00, 0x02, 0x10, 0x00, 0x82,
   0x0e, 0x00, 0xe0, 0xe1, 0x00, 0x00, 0x04, 0x10, 0x00, 0x20, 0x00, 0x00,
   0x00, 0x02, 0x00, 0x00, 0x04, 0x10, 0x00, 0x82, 0x70, 0x00, 0x3c, 0x02,
   0x03, 0x00, 0x08, 0x10, 0x00, 0x10, 0x00, 0x00, 0x00, 0x02, 0x00, 0x00,
   0x08, 0x08, 0x00, 0x82, 0x80, 0x83, 0x13, 0x02, 0x0c, 0x00, 0x30, 0x08,
   0x00, 0x08, 0x00, 0x00, 0x00, 0x02, 0x00, 0x00, 0x10, 0x08, 0x00, 0x02,
   0x01, 0x6c, 0x10, 0x04, 0x70, 0x00, 0x40, 0x08, 0x00, 0x06, 0x00, 0x00,
   0x00, 0x02, 0x00, 0x00, 0x20, 0x04, 0x00, 0x02, 0x01, 0x78, 0x10, 0x04,
   0x80, 0x01, 0x80, 0x04, 0x00, 0x01, 0x00, 0x00, 0x00, 0x02, 0x00, 0x00,
   0x40, 0x02, 0x01, 0x02, 0x02, 0x86, 0x10, 0x08, 0x00, 0x06, 0x80, 0x04,
   0xc0, 0x00, 0x00, 0x00, 0x00, 0x02, 0x00, 0x00, 0x80, 0x02, 0x02, 0x02,
   0x82, 0x01, 0x0b, 0x08, 0x00, 0x18, 0x00, 0x05, 0x20, 0x00, 0x00, 0x00,
   0x00, 0x02, 0x00, 0x00, 0x00, 0x03, 0x04, 0x02, 0x44, 0x00, 0x0c, 0x10,
   0x00, 0xe0, 0x00, 0x02, 0x18, 0x00, 0x00, 0x00, 0x00, 0x02, 0x00, 0x00,
   0x00, 0x03, 0x08, 0x01, 0x38, 0x00, 0x38, 0x10, 0x00, 0x00, 0x03, 0x06,
   0x04, 0x00, 0x00, 0x00, 0x00, 0x02, 0x00, 0x00, 0x00, 0x05, 0x10, 0x01,
   0x08, 0x00, 0x48, 0x20, 0x00, 0x00, 0x0c, 0x0a, 0x03, 0x00, 0x00, 0x00,
   0x00, 0x02, 0x00, 0x00, 0x00, 0x09, 0x60, 0x01, 0x14, 0x00, 0x84, 0x41,
   0x00, 0x00, 0x30, 0xca, 0x00, 0x00, 0x00, 0x00, 0x00, 0x04, 0x00, 0x00,
   0x80, 0x10, 0x80, 0x01, 0x22, 0x00, 0x04, 0x82, 0x00, 0x00, 0xc0, 0x31,
   0x00, 0x00, 0x00, 0x00, 0x00, 0x04, 0x00, 0x00, 0x80, 0x20, 0x00, 0x81,
   0x41, 0x00, 0x04, 0x04, 0x01, 0x00, 0x00, 0x2f, 0x00, 0x00, 0x00, 0x00,
   0x00, 0x04, 0x00, 0x00, 0x80, 0x40, 0x00, 0x47, 0x80, 0x00, 0x04, 0x08,
   0x02, 0x00, 0x00, 0x47, 0x00, 0x00, 0x00, 0x00, 0x00, 0x08, 0x00, 0x00,
   0x80, 0x80, 0x01, 0x39, 0x80, 0x00, 0x04, 0x10, 0x04, 0x00, 0xc0, 0x58,
   0x00, 0x00, 0x00, 0x00, 0x00, 0x08, 0x00, 0x00, 0x40, 0x00, 0x82, 0x30,
   0x00, 0x01, 0x02, 0x20, 0x18, 0x00, 0xb0, 0xa0, 0x00, 0x00, 0x00, 0x00,
   0x00, 0x08, 0x00, 0x00, 0x40, 0x00, 0x84, 0xc8, 0x00, 0x02, 0x02, 0x40,
   0x60, 0x00, 0x8f, 0xc0, 0x01, 0x00, 0x00, 0x00, 0x00, 0x10, 0x00, 0x00,
   0x40, 0x00, 0x88, 0x04, 0x03, 0x04, 0x02, 0x80, 0x80, 0xff, 0x80, 0x00,
   0x01, 0x00, 0x00, 0x00, 0x00, 0x10, 0x00, 0x00, 0x40, 0x00, 0x90, 0x02,
   0x0c, 0x08, 0x02, 0x00, 0x01, 0x00, 0x40, 0x00, 0x02, 0x00, 0x00, 0x00,
   0x00, 0x20, 0x00, 0x00, 0x40, 0x00, 0x60, 0x01, 0x30, 0x10, 0x02, 0x00,
   0x02, 0x00, 0x40, 0x00, 0x04, 0x00, 0x00, 0x00, 0x00, 0x40, 0x00, 0x00,
   0x20, 0x00, 0x80, 0x00, 0xc0, 0x60, 0x02, 0x00, 0x02, 0x00, 0x40, 0x00,
   0x0c, 0x00, 0x00, 0x00, 0x00, 0x80, 0x00, 0x00, 0x20, 0x00, 0x40, 0x00,
   0x00, 0x83, 0x01, 0x00, 0x04, 0x00, 0x20, 0x00, 0x10, 0x00, 0x00, 0x00,
   0x00, 0x80, 0x00, 0x00, 0x20, 0x00, 0x40, 0x00, 0x00, 0x0c, 0x01, 0x00,
   0x08, 0x00, 0x20, 0x00, 0x00, 0x00, 0x00, 0x00, 0x00, 0x00, 0x01, 0x00,
   0x20, 0x00, 0x20, 0x00, 0x00, 0x70, 0x07, 0x00, 0x10, 0x00, 0x20, 0x00,
   0x00, 0x00, 0x00, 0x00, 0x00, 0x00, 0x02, 0x00, 0x20, 0x00, 0x10, 0x00,
   0x00, 0x80, 0x01, 0x00, 0x20, 0x00, 0x20, 0x00, 0x00, 0x00, 0x00, 0x00,
   0x00, 0x00, 0x04, 0x00, 0x40, 0x00, 0x08, 0x00, 0x00, 0x00, 0x00, 0x00,
   0x40, 0x00, 0x10, 0x00, 0x00, 0x00, 0x00, 0x00, 0x00, 0x00, 0x08, 0x00,
   0x00, 0x00, 0x04, 0x00, 0x00, 0x00, 0x00, 0x00, 0x80, 0x00, 0x10, 0x00,
   0x00, 0x00, 0x00, 0x00, 0x00, 0x00, 0x10, 0x00, 0x00, 0x00, 0x02, 0x00,
   0x00, 0x00, 0x00, 0x00, 0x00, 0x01, 0x10, 0x00, 0x00, 0x00, 0x00, 0x00,
   0x00, 0x00, 0x60, 0x00, 0x00, 0x00, 0x01, 0x00, 0x00, 0x00, 0x00, 0x00,
   0x00, 0x02, 0x08, 0x00, 0x00, 0x00, 0x00, 0x00, 0x00, 0x00, 0x80, 0x01,
   0x00, 0x80, 0x00, 0x00, 0x00, 0x00, 0x00, 0x00, 0x00, 0x04, 0x08, 0x00,
   0x00, 0x00, 0x00, 0x00, 0x00, 0x00, 0x00, 0x06, 0x00, 0x60, 0x00, 0x00,
   0x00, 0x00, 0x00, 0x00, 0x00, 0x04, 0x04, 0x00, 0x00, 0x00, 0x00, 0x00,
   0x00, 0x00, 0x00, 0x38, 0x00, 0x10, 0x00, 0x00, 0x00, 0x00, 0x00, 0x00,
   0x00, 0x08, 0x04, 0x00, 0x00, 0x00, 0x00, 0x00, 0x00, 0x00, 0x00, 0xc0,
   0x03, 0x0f, 0x00, 0x00, 0x00, 0x00, 0x00, 0x00, 0x00, 0x10, 0x02, 0x00,
   0x00, 0x00, 0x00, 0x00, 0x00, 0x00, 0x00, 0x00, 0xfc, 0x00, 0x00, 0x00,
   0x00, 0x00, 0x00, 0x00, 0x00, 0x20, 0x02, 0x00, 0x00, 0x00, 0x00, 0x00,
   0x00, 0x00, 0x00, 0x00, 0x00, 0x00, 0x00, 0x00, 0x00, 0x00, 0x00, 0x00,
   0x00, 0xc0, 0x01, 0x00, 0x00, 0x00, 0x00, 0x00, 0x00, 0x00, 0x00, 0x00,
   0x00, 0x00, 0x00, 0x00, 0x00, 0x00, 0x00, 0x00, 0x00, 0x00, 0x00, 0x00,
   0x00, 0x00, 0x00, 0x00, 0x00, 0x00, 0x00, 0x00, 0x00, 0x00, 0x00, 0x00,
   0x00, 0x00, 0x00, 0x00, 0x00, 0x00, 0x00, 0x00, 0x00, 0x00, 0x00, 0x00,
   0x00, 0x00, 0x00, 0x00, 0x00, 0x00, 0x00, 0x00, 0x00, 0x00, 0x00, 0x00,
   0x00, 0x00, 0x00, 0x00, 0x00, 0x00, 0x00, 0x00, 0x00, 0x00, 0x00, 0x00,
   0x00, 0x00, 0x00, 0x00, 0x00, 0x00, 0x00, 0x00, 0x00, 0x00, 0x00, 0x00,
   0x00, 0x00, 0x00, 0x00, 0x00, 0x00, 0x00, 0x00, 0x00, 0x00, 0x00, 0x00,
   0x00, 0x00, 0x00, 0x00, 0x00, 0x00, 0x00, 0x00, 0x00, 0x00, 0x00, 0x00,
   0x00, 0x00, 0x00, 0x00, 0x00, 0x00, 0x00, 0x00, 0x00, 0x00, 0x00, 0x00,
   0x00, 0x00, 0x00, 0x00, 0x00, 0x00, 0x00, 0x00, 0x00, 0x00, 0x00, 0x00,
   0x00, 0x00, 0x00, 0x00, 0x00, 0x00, 0x00, 0x00, 0x00, 0x00, 0x00, 0x00,
   0x00, 0x00, 0x00, 0x00, 0x00, 0x00, 0x00, 0x00, 0x00, 0x00, 0x00, 0x00,
   0x00, 0x00, 0x00, 0x00, 0x00, 0x00, 0x00, 0x00, 0x00, 0x00, 0x00, 0x00,
   0x00, 0x00, 0x00, 0x00, 0x00, 0x00, 0x00, 0x00, 0x00, 0x00, 0x00, 0x00,
   0x00, 0x00, 0x00, 0x00, 0x00, 0x00, 0x00, 0x00, 0x00, 0x00, 0x00, 0x00,
   0x00, 0x00, 0x00, 0x00, 0x00, 0x00, 0x00, 0x00, 0x00, 0x00, 0x00, 0x00,
   0x00, 0x00, 0x00, 0x00, 0x00, 0x00, 0x00, 0x00, 0x00, 0x00, 0x00, 0x00,
   0x00, 0x00, 0x00, 0x00, 0x00, 0x00, 0x00, 0x00, 0x00, 0x00, 0x00, 0x00,
   0x00, 0x00, 0x00, 0x00, 0x00, 0x00, 0x00, 0x00, 0x00, 0x00, 0x00, 0x00,
   0x00, 0x00, 0x00, 0x00, 0x00, 0x00, 0x00, 0x00, 0x00, 0x00, 0x00, 0x00,
   0x00, 0x00, 0x00, 0x00, 0x00, 0x00, 0x00, 0x00, 0x00, 0x00, 0x00, 0x00,
   0x00, 0x00, 0x00, 0x00 };
